<?xml version="1.0" encoding="utf-8"?>
<!-- Generator: Adobe Illustrator 16.0.0, SVG Export Plug-In . SVG Version: 6.00 Build 0)  -->
<!DOCTYPE svg PUBLIC "-//W3C//DTD SVG 1.1//EN" "http://www.w3.org/Graphics/SVG/1.1/DTD/svg11.dtd">
<svg version="1.1" xmlns="http://www.w3.org/2000/svg" xmlns:xlink="http://www.w3.org/1999/xlink" x="0px" y="0px"
	 width="85.334px" height="72.667px" viewBox="0 0 85.334 72.667" enable-background="new 0 0 85.334 72.667" xml:space="preserve">
<g id="Layer_2" display="none">
</g>
<g id="Layer_3" display="none">
</g>
<g id="moringa" display="none">
</g>
<g id="Layer_1" display="none">
</g>
<g id="Layer_5" display="none">
</g>
<g id="Layer_6">
	
		<ellipse fill="none" stroke="#006838" stroke-width="0.5" stroke-miterlimit="10" cx="43.089" cy="36.966" rx="28.248" ry="24.529"/>
	<g>
		<path fill="#006838" d="M30.036,52.058c0.067,0.259,0.081,0.526,0.04,0.803c-0.042,0.277-0.15,0.553-0.327,0.827
			c-0.157,0.245-0.348,0.451-0.572,0.619c-0.225,0.168-0.465,0.282-0.723,0.342c-0.269,0.061-0.543,0.067-0.822,0.018
			c-0.278-0.048-0.569-0.17-0.872-0.365c-0.244-0.158-0.45-0.347-0.616-0.567s-0.282-0.461-0.35-0.721
			c-0.067-0.256-0.08-0.521-0.038-0.798s0.147-0.546,0.317-0.81c0.177-0.274,0.384-0.493,0.621-0.656
			c0.237-0.163,0.49-0.271,0.757-0.325c0.264-0.052,0.534-0.048,0.812,0.011s0.542,0.17,0.795,0.333
			c0.251,0.162,0.46,0.354,0.627,0.578C29.852,51.572,29.969,51.809,30.036,52.058z M27.88,54.071
			c0.163-0.098,0.319-0.228,0.468-0.389c0.148-0.161,0.297-0.357,0.444-0.586c0.125-0.194,0.233-0.393,0.324-0.594
			s0.149-0.396,0.176-0.582c0.024-0.188,0.009-0.361-0.047-0.52c-0.057-0.159-0.168-0.292-0.335-0.4
			c-0.286-0.184-0.591-0.188-0.913-0.013c-0.322,0.176-0.644,0.511-0.962,1.005c-0.135,0.209-0.246,0.418-0.335,0.626
			c-0.087,0.207-0.142,0.402-0.161,0.586c-0.02,0.186,0,0.354,0.059,0.502c0.059,0.148,0.168,0.273,0.327,0.376
			c0.155,0.101,0.315,0.147,0.479,0.141S27.725,54.166,27.88,54.071z"/>
		<path fill="#006838" d="M34.598,57.829l-1.434-0.541c-0.105-0.472-0.197-0.852-0.277-1.139c-0.077-0.287-0.185-0.624-0.317-1.01
			l-0.144-0.055l-0.428,1.136c-0.023,0.063-0.032,0.121-0.025,0.174c0.008,0.053,0.039,0.107,0.094,0.162
			c0.029,0.026,0.075,0.061,0.142,0.102c0.064,0.042,0.122,0.075,0.171,0.1l-0.078,0.206l-1.993-0.751l0.077-0.206
			c0.053,0.014,0.122,0.032,0.21,0.053c0.087,0.022,0.15,0.033,0.191,0.031c0.077-0.002,0.136-0.021,0.174-0.056
			c0.04-0.035,0.071-0.085,0.098-0.152l0.992-2.637c0.023-0.063,0.034-0.12,0.03-0.168c-0.003-0.05-0.035-0.104-0.098-0.164
			c-0.048-0.044-0.106-0.088-0.177-0.133c-0.07-0.044-0.127-0.078-0.168-0.102l0.077-0.206l2.097,0.79
			c0.469,0.176,0.798,0.384,0.985,0.622c0.188,0.239,0.226,0.506,0.114,0.803c-0.099,0.262-0.253,0.444-0.463,0.546
			c-0.21,0.102-0.486,0.14-0.827,0.114c0.062,0.199,0.134,0.431,0.216,0.695s0.169,0.534,0.261,0.811
			c0.029,0.089,0.071,0.201,0.129,0.335c0.056,0.135,0.116,0.227,0.179,0.277c0.037,0.028,0.084,0.057,0.143,0.09
			c0.06,0.032,0.102,0.054,0.127,0.066L34.598,57.829z M33.851,54.374c0.095-0.25,0.093-0.458-0.003-0.625
			c-0.097-0.168-0.274-0.3-0.532-0.397l-0.208-0.079l-0.589,1.565l0.2,0.076c0.258,0.097,0.483,0.104,0.677,0.023
			C33.589,54.854,33.739,54.667,33.851,54.374z"/>
		<path fill="#006838" d="M40.666,57.245c-0.058-0.004-0.109-0.005-0.155-0.004s-0.104,0.006-0.173,0.018
			c-0.08,0.012-0.137,0.045-0.17,0.097c-0.033,0.051-0.054,0.108-0.063,0.169l-0.071,0.459c-0.015,0.093-0.025,0.167-0.032,0.224
			c-0.007,0.057-0.016,0.127-0.024,0.211c-0.203,0.083-0.493,0.144-0.87,0.186c-0.379,0.042-0.72,0.039-1.024-0.009
			c-0.284-0.044-0.547-0.13-0.782-0.256c-0.237-0.126-0.437-0.291-0.599-0.495c-0.162-0.202-0.277-0.44-0.347-0.712
			c-0.067-0.273-0.076-0.575-0.024-0.905c0.048-0.308,0.143-0.585,0.286-0.831c0.143-0.246,0.325-0.448,0.548-0.607
			c0.219-0.158,0.471-0.267,0.759-0.326c0.287-0.06,0.597-0.064,0.926-0.013c0.225,0.036,0.429,0.095,0.61,0.181
			c0.183,0.085,0.33,0.169,0.445,0.251l0.196-0.126l0.241,0.038l-0.198,1.445l-0.246-0.038c-0.073-0.455-0.191-0.803-0.354-1.043
			c-0.164-0.241-0.396-0.384-0.697-0.432c-0.356-0.055-0.654,0.058-0.897,0.339c-0.242,0.282-0.406,0.696-0.491,1.244
			c-0.092,0.581-0.067,1.05,0.072,1.409c0.139,0.358,0.382,0.563,0.73,0.618c0.163,0.025,0.312,0.023,0.447-0.006
			s0.242-0.071,0.322-0.125l0.125-0.801c0.011-0.066,0.008-0.125-0.01-0.173c-0.018-0.049-0.059-0.096-0.126-0.141
			c-0.052-0.035-0.118-0.066-0.198-0.096c-0.081-0.03-0.149-0.053-0.203-0.069l0.033-0.217l2.051,0.32L40.666,57.245z"/>
		<path fill="#006838" d="M46.362,58.734l-2.173,0.086l-0.009-0.219c0.101-0.012,0.219-0.035,0.354-0.069
			c0.136-0.035,0.203-0.074,0.201-0.117c0-0.015-0.002-0.032-0.007-0.05c-0.003-0.019-0.012-0.043-0.026-0.075l-0.373-0.813
			l-1.379,0.055c-0.028,0.078-0.059,0.169-0.094,0.274c-0.034,0.105-0.063,0.198-0.089,0.28c-0.03,0.106-0.048,0.183-0.054,0.23
			c-0.004,0.047-0.007,0.08-0.005,0.099c0.002,0.06,0.05,0.109,0.143,0.148c0.092,0.039,0.244,0.063,0.457,0.073l0.009,0.22
			l-1.637,0.065l-0.01-0.219c0.062-0.006,0.132-0.019,0.209-0.038s0.138-0.043,0.182-0.073c0.075-0.048,0.138-0.106,0.189-0.174
			c0.051-0.068,0.092-0.147,0.124-0.238c0.196-0.536,0.394-1.072,0.59-1.609c0.197-0.538,0.416-1.13,0.655-1.778l0.562-0.023
			c0.404,0.889,0.721,1.592,0.949,2.109c0.229,0.517,0.424,0.945,0.583,1.283c0.027,0.056,0.06,0.105,0.1,0.15
			c0.039,0.044,0.095,0.086,0.165,0.125c0.054,0.028,0.115,0.048,0.186,0.06c0.069,0.012,0.133,0.02,0.19,0.021L46.362,58.734z
			 M44.201,57.204l-0.635-1.42l-0.512,1.465L44.201,57.204z"/>
		<path fill="#006838" d="M51.37,53.764c-0.05,0.018-0.121,0.046-0.212,0.083c-0.092,0.038-0.168,0.094-0.23,0.169
			c-0.056,0.065-0.083,0.162-0.082,0.288s0.029,0.306,0.086,0.537l0.679,2.773l-0.486,0.119l-3.151-2.408l0.445,1.821
			c0.056,0.226,0.112,0.394,0.172,0.504c0.059,0.11,0.128,0.185,0.21,0.223c0.059,0.028,0.146,0.044,0.261,0.049
			c0.114,0.005,0.205,0.005,0.271,0l0.053,0.213l-1.668,0.408l-0.052-0.213c0.069-0.023,0.148-0.056,0.234-0.099
			c0.088-0.044,0.156-0.095,0.208-0.154c0.058-0.07,0.087-0.162,0.088-0.275c0-0.113-0.03-0.295-0.092-0.547l-0.45-1.837
			c-0.022-0.091-0.058-0.174-0.105-0.248s-0.109-0.133-0.184-0.177c-0.079-0.046-0.164-0.077-0.256-0.092
			c-0.093-0.015-0.193-0.02-0.304-0.015l-0.053-0.218l1.46-0.358l2.763,2.105l-0.358-1.468c-0.057-0.233-0.115-0.403-0.174-0.509
			c-0.059-0.106-0.129-0.179-0.21-0.217c-0.062-0.029-0.149-0.046-0.261-0.051c-0.111-0.004-0.2-0.004-0.267,0l-0.053-0.213
			l1.665-0.408L51.37,53.764z"/>
		<path fill="#006838" d="M55.767,55.933l-2.03,0.888l-0.087-0.202c0.044-0.023,0.11-0.058,0.197-0.105
			c0.088-0.046,0.146-0.083,0.174-0.112c0.052-0.053,0.08-0.106,0.086-0.159c0.005-0.053-0.008-0.111-0.035-0.177l-1.135-2.595
			c-0.026-0.059-0.06-0.105-0.102-0.14s-0.102-0.052-0.179-0.051c-0.049,0.001-0.117,0.01-0.206,0.027s-0.164,0.035-0.226,0.054
			l-0.088-0.201l2.03-0.887l0.088,0.201c-0.05,0.028-0.11,0.063-0.185,0.106c-0.072,0.043-0.133,0.085-0.178,0.125
			c-0.058,0.052-0.087,0.106-0.089,0.163s0.011,0.116,0.037,0.176l1.133,2.592c0.027,0.062,0.062,0.11,0.104,0.144
			s0.103,0.05,0.18,0.049c0.043,0,0.109-0.011,0.198-0.033c0.09-0.021,0.165-0.043,0.223-0.065L55.767,55.933z"/>
		<path fill="#006838" d="M59.128,54.128c-0.245,0.159-0.502,0.269-0.767,0.328c-0.267,0.059-0.527,0.064-0.784,0.016
			c-0.252-0.047-0.493-0.151-0.725-0.312s-0.432-0.371-0.603-0.633c-0.168-0.26-0.278-0.53-0.332-0.811
			c-0.052-0.28-0.05-0.555,0.009-0.823c0.057-0.263,0.17-0.512,0.339-0.745c0.168-0.233,0.381-0.433,0.638-0.6
			c0.186-0.12,0.37-0.207,0.552-0.261c0.184-0.053,0.345-0.085,0.487-0.097l0.062-0.225l0.206-0.133l0.813,1.21l-0.208,0.134
			c-0.36-0.297-0.68-0.48-0.957-0.549c-0.279-0.068-0.537-0.025-0.775,0.129c-0.295,0.192-0.436,0.468-0.42,0.829
			c0.015,0.36,0.175,0.777,0.48,1.248c0.173,0.267,0.347,0.477,0.521,0.631c0.175,0.155,0.341,0.262,0.501,0.322
			c0.169,0.061,0.333,0.079,0.494,0.055s0.316-0.086,0.468-0.184c0.22-0.143,0.377-0.33,0.473-0.561
			c0.094-0.231,0.134-0.514,0.118-0.849l0.283-0.009c0.021,0.182,0.024,0.356,0.009,0.522c-0.017,0.166-0.056,0.324-0.117,0.477
			c-0.068,0.167-0.162,0.324-0.281,0.47C59.494,53.855,59.333,53.995,59.128,54.128z"/>
	</g>
	<g>
		<path fill="#006838" d="M66.493,31.191c-0.1,0.477,0.02,1.784-0.667,2.002c0.43,1.659,0.529,2.704,0.889,4.117
			c0.1,0.089,0.299,0.075,0.445,0.111c-0.144,0.806-0.146,1.133-0.333,1.781c-1.113,0.058-2.121,0.02-2.893,0.055
			c-0.096-0.452,0.021-1.591,0.444-1.892c-0.434-0.487-1.388-0.062-1.947-0.223c-0.112,0.016-0.11,0.149-0.167,0.223
			c0.282,0.507-0.087,1.227-0.166,1.892c-1.024,0.004-1.835,0.052-2.95,0c0.009-0.472,0.204-1.195,0.278-1.779
			c0.204,0.017,0.361-0.01,0.502-0.057c0.724-1.242,1.54-2.872,2.393-4.171c-0.031-0.136-0.211-0.126-0.335-0.169
			c0.144-0.598,0.191-1.291,0.389-1.837C63.965,31.207,64.849,31.179,66.493,31.191z M63.268,35.586
			c0.441-0.018,0.363-0.039,0.779,0c-0.06-0.389-0.06-0.836-0.278-1.058C63.664,34.913,63.208,35.222,63.268,35.586z"/>
		<path fill="#006838" d="M58.094,31.302c0.02,0.49-0.172,1.236-0.223,1.835c-0.079,0.094-0.314,0.02-0.392,0.114
			c0.285,1.38,0.71,2.921,0.893,4.228c0.226-0.055,0.222,0.005,0.498,0c-0.042,0.432-0.191,1.34-0.278,1.725
			c-0.993,0.198-2.049,0.009-2.95,0.11c-0.027-0.451,0.091-1.601,0.448-2.003c-0.646-0.219-1.194-0.015-2.004-0.111
			c0.008,0.066-0.015,0.1-0.058,0.111c0.251,0.403-0.108,1.327-0.056,1.836c-1.047,0.352-1.807,0.091-3.06,0.167
			c0.076-0.595,0.183-1.097,0.278-1.78c0.102-0.072,0.282,0.049,0.445-0.055c0.802-1.351,1.542-2.763,2.283-4.174
			c-0.499-0.495,0.036-1.517,0.053-1.948C55.42,31.233,56.889,31.307,58.094,31.302z M54.979,35.641
			c0.249-0.024,0.61,0.057,0.778-0.055c-0.066-0.359-0.115-0.738-0.281-1.001C55.34,34.969,55.051,35.197,54.979,35.641z"/>
		<path fill="#006838" d="M51.136,33.193c-0.051-0.083-0.349,0.058-0.444,0.111c-0.164,1.461-0.369,2.667-0.611,4.117
			c0.073,0.159,0.278,0.017,0.444,0.168c-0.104,0.703-0.109,1.197-0.335,1.724c-1.047-0.004-1.998,0.103-3.003-0.056
			c0.121-0.673,0.13-1.177,0.278-1.725c0.13,0,0.26,0,0.389,0c0.16-0.549,0.23-1.21,0.279-1.724
			c-0.626,0.633-1.296,1.709-1.892,2.559c-0.534-0.546-0.84-1.752-1.281-2.616c-0.258,0.411-0.135,1.201-0.333,1.67
			c0.156,0.083,0.333,0.147,0.499,0.222c-0.13,0.43-0.177,1.203-0.277,1.614c-0.998,0.116-2.228,0.138-3.061,0
			c0.007-0.406,0.171-1.123,0.222-1.668c0.171-0.074,0.197-0.017,0.444-0.057c0.173-1.333,0.45-2.948,0.559-4.229
			c-0.085-0.087-0.247,0.017-0.389-0.111c0.02-0.63,0.134-1.163,0.166-1.78c0.744-0.162,1.781,0.012,2.614-0.056
			c0.35,1.08,0.905,1.953,1.281,3.005c0.797-0.929,1.485-1.965,2.17-3.005c0.927,0.008,2.074-0.057,2.559,0
			c-0.011,0.696-0.197,1.211-0.223,1.894C51.094,33.265,51.079,33.196,51.136,33.193z"/>
		<path fill="#006838" d="M27.209,38.034c0.116-0.578,0.139-1.045,0.17-1.78c0.695-0.18,1.544-0.052,2.28-0.056
			c0.017,0.338-0.296,1.014,0,1.335c0.376,0.095,0.61,0.021,0.834-0.167c0.12-1.438,0.295-2.604,0.392-4.006
			c-0.096-0.165-0.467-0.055-0.615-0.167c0.057-0.542,0.025-1.251,0.224-1.78c1.049-0.016,2.195-0.055,3.283,0
			c-0.072,0.636-0.098,1.236-0.167,1.78c-0.18,0.043-0.369,0.077-0.5,0.167c-0.132,1.823-0.366,3.097-0.5,4.785
			c-0.432,0.069-0.69,0.946-1.394,1.168c-0.411,0.131-1.07,0.009-1.613,0c-0.418-0.007-0.938,0.118-1.224,0
			C27.802,39.076,27.657,38.365,27.209,38.034z"/>
		<path fill="#006838" d="M23.483,31.524c-0.149,0.632-0.124,1.168-0.169,1.727c-0.172,0.028-0.36,0.044-0.499,0.109
			c-0.097,1.208-0.26,2.739-0.335,4.062c0.403,0.343,0.875,0.121,1.281,0.168c0.463-0.546,0.283-1.879,0.389-2.781
			c0.036-0.319,0.126-0.868,0.222-1.338c-0.129-0.234-0.349-0.167-0.444-0.22c-0.002-0.697,0.041-1.361,0.169-1.783
			c0.984-0.072,2.01-0.095,3.112,0c-0.027,0.635-0.104,1.342-0.166,1.783c-0.204-0.042-0.238,0.092-0.445,0.054
			c-0.121,1.645-0.378,3.449-0.443,4.841c-0.496,0.375-0.924,0.82-1.39,1.223c-1.458,0.003-2.531,0.018-3.396,0.057
			c-0.458-0.395-0.82-0.887-1.224-1.336c0.104-1.465,0.33-3.143,0.389-4.674c-0.023-0.164-0.327-0.045-0.389-0.165
			c-0.04-0.544,0.058-1.082,0.11-1.727C21.412,31.443,22.23,31.336,23.483,31.524z"/>
		<path fill="#006838" d="M40.566,31.524c-0.161,0.354-0.137,1.186-0.278,1.727c-0.17,0.081-0.217-0.02-0.336,0.054
			c0.346,1.397,0.687,2.798,1.056,4.174c0.082,0.104,0.366,0.006,0.447,0.111c-0.009,0.657-0.126,1.208-0.224,1.779
			c-0.976-0.11-1.972,0.016-2.948-0.055c0.079-0.586,0.005-1.526,0.391-1.892c-0.343-0.303-1.628-0.209-2.061-0.056
			c0.403,0.433-0.03,1.18,0,1.892c-0.989,0.146-1.939,0.063-3.004,0.056c0.055-0.893,0.05-1.06,0.167-1.724
			c0.138-0.106,0.217,0.045,0.389-0.057c0.821-1.293,1.473-2.757,2.17-4.173c-0.449-0.227,0-1.266-0.055-1.947
			c0.928-0.092,2.073,0.002,2.893-0.056C39.454,31.375,40.344,31.261,40.566,31.524z M37.504,35.698
			c0.303-0.067,0.502,0.069,0.779-0.057c-0.076-0.366-0.112-0.775-0.333-1.001C37.861,35.052,37.574,35.265,37.504,35.698z"/>
	</g>
	<g>
		<path fill="#006838" stroke="#006838" stroke-width="0.25" stroke-miterlimit="10" d="M28.151,45.579h-1.464v-0.176
			c0.04-0.003,0.098-0.008,0.173-0.015c0.075-0.006,0.127-0.017,0.155-0.03c0.05-0.02,0.086-0.05,0.109-0.091
			c0.023-0.041,0.035-0.093,0.035-0.158v-1.254h-1.657v1.227c0,0.058,0.009,0.107,0.028,0.147c0.019,0.04,0.057,0.074,0.113,0.104
			c0.028,0.015,0.078,0.03,0.15,0.045c0.071,0.015,0.128,0.023,0.17,0.025v0.176h-1.464v-0.176c0.04-0.003,0.098-0.008,0.173-0.015
			c0.075-0.006,0.127-0.017,0.155-0.03c0.05-0.02,0.086-0.05,0.109-0.091c0.023-0.041,0.035-0.093,0.035-0.158v-2.544
			c0-0.053-0.011-0.102-0.032-0.146s-0.06-0.078-0.112-0.103c-0.045-0.021-0.099-0.041-0.162-0.057
			c-0.064-0.017-0.119-0.027-0.166-0.03v-0.177h1.464v0.177c-0.047,0.001-0.104,0.009-0.17,0.022
			c-0.067,0.014-0.117,0.026-0.15,0.038c-0.057,0.02-0.095,0.053-0.113,0.099c-0.02,0.046-0.028,0.097-0.028,0.152v1.093h1.657
			v-1.068c0-0.053-0.011-0.102-0.032-0.146s-0.06-0.078-0.112-0.103c-0.045-0.021-0.099-0.041-0.163-0.057
			c-0.063-0.017-0.118-0.027-0.165-0.03v-0.177h1.464v0.177c-0.047,0.001-0.104,0.009-0.17,0.022
			c-0.067,0.014-0.117,0.026-0.15,0.038c-0.057,0.02-0.095,0.053-0.113,0.099c-0.02,0.046-0.028,0.097-0.028,0.152v2.542
			c0,0.058,0.009,0.107,0.028,0.147c0.019,0.04,0.057,0.074,0.113,0.104c0.027,0.015,0.078,0.03,0.15,0.045
			c0.071,0.015,0.128,0.023,0.17,0.025V45.579z"/>
		<path fill="#006838" stroke="#006838" stroke-width="0.25" stroke-miterlimit="10" d="M31.612,44.541l-0.067,1.039h-2.927v-0.176
			c0.05-0.003,0.116-0.01,0.198-0.021c0.083-0.011,0.137-0.021,0.162-0.033c0.053-0.025,0.09-0.057,0.11-0.097
			c0.021-0.04,0.031-0.09,0.031-0.151v-2.534c0-0.055-0.01-0.104-0.027-0.146c-0.019-0.042-0.057-0.077-0.114-0.103
			c-0.045-0.021-0.105-0.041-0.181-0.057s-0.135-0.027-0.18-0.03v-0.177h2.728v0.85H31.16c-0.033-0.126-0.105-0.26-0.215-0.401
			c-0.11-0.142-0.216-0.219-0.314-0.232c-0.052-0.006-0.113-0.012-0.185-0.015c-0.071-0.003-0.152-0.005-0.243-0.005h-0.554v1.401
			h0.397c0.127,0,0.221-0.012,0.279-0.036c0.059-0.024,0.11-0.064,0.155-0.12c0.036-0.048,0.067-0.112,0.093-0.193
			c0.026-0.08,0.043-0.156,0.052-0.227h0.186v1.381h-0.186c-0.007-0.08-0.024-0.164-0.054-0.252
			c-0.029-0.088-0.06-0.152-0.091-0.192c-0.052-0.064-0.109-0.107-0.175-0.126c-0.065-0.02-0.152-0.03-0.26-0.03h-0.397v1.057
			c0,0.106,0.007,0.189,0.022,0.25c0.015,0.061,0.044,0.107,0.087,0.139c0.043,0.032,0.102,0.052,0.176,0.061
			c0.075,0.009,0.181,0.014,0.318,0.014c0.055,0,0.127,0,0.216,0c0.09,0,0.165-0.003,0.227-0.01
			c0.062-0.006,0.128-0.019,0.195-0.036c0.066-0.018,0.114-0.041,0.143-0.071c0.076-0.08,0.156-0.2,0.239-0.362
			c0.084-0.162,0.138-0.28,0.16-0.356H31.612z"/>
		<path fill="#006838" stroke="#006838" stroke-width="0.25" stroke-miterlimit="10" d="M35.26,45.579h-1.465v-0.176
			c0.129-0.008,0.236-0.025,0.321-0.05c0.086-0.025,0.128-0.056,0.128-0.092c0-0.015-0.002-0.033-0.005-0.055
			s-0.008-0.041-0.015-0.057l-0.292-0.79h-1.237c-0.047,0.116-0.085,0.217-0.113,0.303c-0.029,0.086-0.056,0.166-0.079,0.239
			c-0.021,0.071-0.036,0.129-0.045,0.174c-0.008,0.045-0.012,0.081-0.012,0.109c0,0.066,0.052,0.118,0.156,0.154
			c0.104,0.037,0.222,0.058,0.353,0.065v0.176h-1.327v-0.176c0.043-0.003,0.097-0.013,0.161-0.029s0.117-0.037,0.159-0.063
			c0.066-0.044,0.117-0.091,0.154-0.14c0.036-0.049,0.071-0.116,0.106-0.203c0.178-0.442,0.373-0.939,0.586-1.491
			c0.214-0.552,0.404-1.042,0.572-1.473h0.198l1.176,3.041c0.024,0.064,0.053,0.117,0.084,0.157c0.031,0.04,0.075,0.079,0.132,0.117
			c0.038,0.023,0.088,0.042,0.149,0.058c0.061,0.016,0.112,0.024,0.153,0.026V45.579z M33.842,44.138l-0.534-1.368l-0.526,1.368
			H33.842z"/>
		<path fill="#006838" stroke="#006838" stroke-width="0.25" stroke-miterlimit="10" d="M38.216,44.531l-0.074,1.048h-2.756v-0.176
			c0.04-0.003,0.098-0.009,0.173-0.018s0.128-0.019,0.158-0.032c0.05-0.021,0.086-0.053,0.107-0.094
			c0.022-0.042,0.034-0.095,0.034-0.159v-2.524c0-0.056-0.01-0.106-0.029-0.149c-0.019-0.043-0.057-0.078-0.112-0.104
			c-0.038-0.02-0.092-0.04-0.16-0.059c-0.069-0.019-0.126-0.03-0.171-0.033v-0.177h1.488v0.177c-0.046,0.001-0.106,0.01-0.18,0.025
			c-0.074,0.015-0.127,0.028-0.16,0.04c-0.057,0.02-0.095,0.054-0.116,0.102c-0.021,0.048-0.03,0.099-0.03,0.154v2.368
			c0,0.109,0.005,0.194,0.016,0.255s0.036,0.107,0.076,0.141c0.038,0.03,0.095,0.049,0.17,0.058
			c0.075,0.009,0.181,0.014,0.316,0.014c0.062,0,0.126-0.001,0.191-0.005c0.066-0.003,0.13-0.01,0.189-0.02
			c0.058-0.01,0.111-0.023,0.16-0.041c0.049-0.017,0.085-0.039,0.108-0.066c0.067-0.076,0.146-0.191,0.237-0.346
			c0.09-0.155,0.152-0.281,0.188-0.376H38.216z"/>
		<path fill="#006838" stroke="#006838" stroke-width="0.25" stroke-miterlimit="10" d="M41.324,43.01h-0.171
			c-0.015-0.06-0.042-0.13-0.081-0.212s-0.083-0.159-0.131-0.232c-0.05-0.076-0.104-0.143-0.163-0.2s-0.115-0.09-0.171-0.098
			c-0.051-0.007-0.116-0.012-0.193-0.015c-0.078-0.003-0.15-0.005-0.217-0.005h-0.145v2.82c0,0.055,0.012,0.104,0.034,0.15
			c0.023,0.045,0.064,0.081,0.122,0.105c0.03,0.012,0.093,0.027,0.188,0.047c0.096,0.02,0.17,0.03,0.223,0.032v0.176h-1.665v-0.176
			c0.047-0.003,0.117-0.01,0.213-0.02c0.095-0.01,0.161-0.022,0.197-0.037c0.055-0.021,0.095-0.053,0.12-0.093
			c0.026-0.041,0.039-0.095,0.039-0.163v-2.843h-0.145c-0.051,0-0.115,0.001-0.191,0.004s-0.148,0.008-0.219,0.016
			c-0.055,0.007-0.111,0.04-0.17,0.098s-0.113,0.125-0.162,0.2c-0.05,0.074-0.094,0.153-0.132,0.237
			c-0.038,0.083-0.064,0.152-0.08,0.207h-0.174v-0.957h3.073V43.01z"/>
		<path fill="#006838" stroke="#006838" stroke-width="0.25" stroke-miterlimit="10" d="M45.256,45.579h-1.464v-0.176
			c0.04-0.003,0.098-0.008,0.173-0.015c0.075-0.006,0.127-0.017,0.155-0.03c0.05-0.02,0.086-0.05,0.109-0.091
			c0.023-0.041,0.035-0.093,0.035-0.158v-1.254h-1.657v1.227c0,0.058,0.009,0.107,0.028,0.147c0.019,0.04,0.057,0.074,0.113,0.104
			c0.028,0.015,0.078,0.03,0.15,0.045c0.071,0.015,0.128,0.023,0.17,0.025v0.176h-1.464v-0.176c0.04-0.003,0.098-0.008,0.173-0.015
			c0.075-0.006,0.127-0.017,0.155-0.03c0.05-0.02,0.086-0.05,0.109-0.091c0.023-0.041,0.035-0.093,0.035-0.158v-2.544
			c0-0.053-0.011-0.102-0.032-0.146s-0.06-0.078-0.112-0.103c-0.045-0.021-0.099-0.041-0.162-0.057
			c-0.064-0.017-0.119-0.027-0.166-0.03v-0.177h1.464v0.177c-0.047,0.001-0.104,0.009-0.17,0.022
			c-0.067,0.014-0.117,0.026-0.15,0.038c-0.057,0.02-0.095,0.053-0.113,0.099c-0.02,0.046-0.028,0.097-0.028,0.152v1.093h1.657
			v-1.068c0-0.053-0.011-0.102-0.032-0.146s-0.06-0.078-0.112-0.103c-0.045-0.021-0.099-0.041-0.163-0.057
			c-0.063-0.017-0.118-0.027-0.165-0.03v-0.177h1.464v0.177c-0.047,0.001-0.104,0.009-0.17,0.022
			c-0.067,0.014-0.117,0.026-0.15,0.038c-0.057,0.02-0.095,0.053-0.113,0.099c-0.02,0.046-0.028,0.097-0.028,0.152v2.542
			c0,0.058,0.009,0.107,0.028,0.147c0.019,0.04,0.057,0.074,0.113,0.104c0.027,0.015,0.078,0.03,0.15,0.045
			c0.071,0.015,0.128,0.023,0.17,0.025V45.579z"/>
		<path fill="#006838" stroke="#006838" stroke-width="0.25" stroke-miterlimit="10" d="M49.716,42.936h-0.187
			c-0.035-0.131-0.107-0.271-0.218-0.42s-0.216-0.231-0.316-0.246c-0.052-0.006-0.112-0.012-0.183-0.015
			c-0.07-0.003-0.15-0.005-0.24-0.005h-0.591v1.417h0.405c0.123,0,0.219-0.013,0.287-0.039c0.067-0.026,0.126-0.065,0.174-0.118
			c0.033-0.036,0.063-0.093,0.091-0.17c0.027-0.077,0.046-0.16,0.054-0.248h0.187v1.387h-0.187
			c-0.005-0.073-0.021-0.156-0.051-0.249s-0.061-0.16-0.094-0.201c-0.05-0.062-0.112-0.103-0.188-0.125
			c-0.076-0.022-0.167-0.034-0.273-0.034h-0.405v1.213c0,0.055,0.011,0.104,0.032,0.146s0.06,0.078,0.114,0.104
			c0.024,0.012,0.078,0.026,0.161,0.042s0.146,0.025,0.189,0.027v0.176H46.95v-0.176c0.05-0.003,0.116-0.009,0.198-0.016
			c0.083-0.008,0.137-0.017,0.162-0.029c0.05-0.021,0.086-0.053,0.107-0.096c0.022-0.042,0.034-0.093,0.034-0.153v-2.544
			c0-0.055-0.01-0.104-0.027-0.146c-0.019-0.042-0.057-0.077-0.114-0.103c-0.045-0.021-0.105-0.041-0.181-0.057
			s-0.135-0.027-0.18-0.03v-0.177h2.766V42.936z"/>
		<path fill="#006838" stroke="#006838" stroke-width="0.25" stroke-miterlimit="10" d="M52.876,42.471
			c0.155,0.163,0.277,0.358,0.365,0.588s0.132,0.483,0.132,0.761c0,0.28-0.045,0.534-0.134,0.763
			c-0.09,0.229-0.214,0.423-0.373,0.584c-0.154,0.159-0.333,0.282-0.537,0.368c-0.203,0.086-0.421,0.129-0.65,0.129
			c-0.245,0-0.472-0.046-0.68-0.138c-0.208-0.092-0.387-0.22-0.535-0.384c-0.149-0.161-0.267-0.355-0.352-0.585
			c-0.086-0.229-0.128-0.475-0.128-0.737c0-0.287,0.044-0.542,0.134-0.767c0.09-0.224,0.213-0.418,0.37-0.583
			c0.155-0.162,0.337-0.287,0.543-0.373s0.422-0.129,0.647-0.129c0.233,0,0.453,0.044,0.661,0.132
			C52.547,42.188,52.726,42.312,52.876,42.471z M52.506,44.97c0.093-0.15,0.16-0.321,0.202-0.512
			c0.043-0.19,0.063-0.403,0.063-0.639c0-0.242-0.023-0.464-0.07-0.666c-0.048-0.202-0.116-0.375-0.208-0.517
			c-0.091-0.141-0.205-0.25-0.343-0.329s-0.295-0.118-0.472-0.118c-0.199,0-0.368,0.046-0.507,0.137
			c-0.14,0.091-0.253,0.213-0.341,0.365c-0.083,0.146-0.145,0.316-0.185,0.512c-0.041,0.196-0.062,0.401-0.062,0.616
			c0,0.239,0.021,0.454,0.064,0.646c0.043,0.192,0.111,0.363,0.204,0.512c0.09,0.146,0.202,0.259,0.338,0.341
			s0.298,0.123,0.487,0.123c0.177,0,0.337-0.042,0.479-0.124C52.301,45.235,52.416,45.12,52.506,44.97z"/>
		<path fill="#006838" stroke="#006838" stroke-width="0.25" stroke-miterlimit="10" d="M56.662,42.471
			c0.155,0.163,0.277,0.358,0.365,0.588s0.132,0.483,0.132,0.761c0,0.28-0.045,0.534-0.134,0.763
			c-0.09,0.229-0.214,0.423-0.373,0.584c-0.154,0.159-0.333,0.282-0.537,0.368c-0.203,0.086-0.421,0.129-0.65,0.129
			c-0.245,0-0.472-0.046-0.68-0.138c-0.208-0.092-0.387-0.22-0.535-0.384c-0.149-0.161-0.267-0.355-0.352-0.585
			c-0.086-0.229-0.128-0.475-0.128-0.737c0-0.287,0.044-0.542,0.134-0.767c0.09-0.224,0.213-0.418,0.37-0.583
			c0.155-0.162,0.337-0.287,0.543-0.373s0.422-0.129,0.647-0.129c0.233,0,0.453,0.044,0.661,0.132
			C56.333,42.188,56.512,42.312,56.662,42.471z M56.292,44.97c0.093-0.15,0.16-0.321,0.202-0.512
			c0.043-0.19,0.063-0.403,0.063-0.639c0-0.242-0.023-0.464-0.07-0.666c-0.048-0.202-0.116-0.375-0.208-0.517
			c-0.091-0.141-0.205-0.25-0.343-0.329s-0.295-0.118-0.472-0.118c-0.199,0-0.368,0.046-0.507,0.137
			c-0.14,0.091-0.253,0.213-0.341,0.365c-0.083,0.146-0.145,0.316-0.185,0.512c-0.041,0.196-0.062,0.401-0.062,0.616
			c0,0.239,0.021,0.454,0.064,0.646c0.043,0.192,0.111,0.363,0.204,0.512c0.09,0.146,0.202,0.259,0.338,0.341
			s0.298,0.123,0.487,0.123c0.177,0,0.337-0.042,0.479-0.124C56.087,45.235,56.202,45.12,56.292,44.97z"/>
		<path fill="#006838" stroke="#006838" stroke-width="0.25" stroke-miterlimit="10" d="M60.979,43.837c0,0.3-0.057,0.56-0.169,0.78
			s-0.259,0.401-0.439,0.542c-0.183,0.141-0.387,0.246-0.614,0.315c-0.227,0.07-0.461,0.104-0.703,0.104h-1.461v-0.176
			c0.048,0,0.11-0.005,0.188-0.014c0.077-0.009,0.128-0.02,0.153-0.031c0.05-0.021,0.086-0.053,0.107-0.096
			c0.022-0.042,0.034-0.093,0.034-0.153v-2.544c0-0.057-0.01-0.107-0.029-0.152c-0.019-0.044-0.057-0.08-0.112-0.107
			c-0.052-0.025-0.107-0.043-0.167-0.055c-0.06-0.011-0.11-0.019-0.153-0.022v-0.177h1.54c0.212,0,0.421,0.033,0.626,0.098
			s0.385,0.154,0.537,0.265c0.207,0.147,0.369,0.34,0.486,0.579C60.92,43.233,60.979,43.514,60.979,43.837z M60.37,43.836
			c0-0.236-0.032-0.45-0.095-0.642c-0.063-0.191-0.155-0.358-0.275-0.5c-0.114-0.135-0.255-0.242-0.422-0.32
			c-0.166-0.078-0.352-0.117-0.555-0.117c-0.068,0-0.145,0.001-0.23,0.003c-0.085,0.002-0.148,0.005-0.189,0.006v2.708
			c0,0.151,0.044,0.255,0.132,0.313c0.087,0.058,0.223,0.087,0.404,0.087c0.211,0,0.395-0.038,0.552-0.112
			c0.157-0.075,0.285-0.178,0.383-0.311c0.103-0.139,0.178-0.3,0.225-0.483C60.346,44.288,60.37,44.076,60.37,43.836z"/>
		<path fill="#006838" stroke="#006838" stroke-width="0.25" stroke-miterlimit="10" d="M63.607,43.961
			c0.074,0.083,0.13,0.174,0.165,0.272c0.036,0.098,0.054,0.213,0.054,0.344c0,0.312-0.115,0.568-0.346,0.771
			s-0.516,0.303-0.857,0.303c-0.157,0-0.314-0.025-0.472-0.074s-0.293-0.108-0.407-0.177l-0.107,0.181h-0.198l-0.035-1.208h0.201
			c0.042,0.149,0.09,0.284,0.146,0.404s0.129,0.232,0.22,0.336c0.086,0.098,0.187,0.176,0.302,0.234s0.249,0.087,0.401,0.087
			c0.114,0,0.214-0.015,0.3-0.045c0.085-0.03,0.154-0.072,0.207-0.127c0.054-0.055,0.093-0.119,0.118-0.193
			c0.025-0.074,0.039-0.159,0.039-0.255c0-0.141-0.04-0.272-0.12-0.395c-0.079-0.122-0.197-0.214-0.354-0.277
			c-0.108-0.042-0.231-0.09-0.37-0.142c-0.14-0.052-0.26-0.101-0.36-0.147c-0.199-0.089-0.354-0.207-0.464-0.351
			c-0.11-0.145-0.165-0.334-0.165-0.568c0-0.134,0.027-0.259,0.082-0.375c0.055-0.116,0.133-0.219,0.233-0.311
			c0.096-0.086,0.21-0.153,0.341-0.202s0.268-0.073,0.409-0.073c0.163,0,0.308,0.024,0.437,0.074
			c0.128,0.05,0.245,0.108,0.352,0.174l0.102-0.169h0.199l0.02,1.17h-0.201c-0.036-0.134-0.077-0.263-0.123-0.385
			s-0.104-0.233-0.178-0.333c-0.071-0.096-0.158-0.172-0.261-0.229s-0.229-0.086-0.378-0.086c-0.157,0-0.291,0.051-0.402,0.152
			c-0.11,0.101-0.166,0.224-0.166,0.37c0,0.152,0.035,0.279,0.106,0.379s0.175,0.183,0.311,0.247c0.121,0.058,0.24,0.108,0.356,0.15
			c0.117,0.042,0.23,0.087,0.34,0.135c0.099,0.043,0.194,0.092,0.286,0.147C63.46,43.825,63.539,43.889,63.607,43.961z"/>
	</g>
	<g>
		<path fill="#006838" stroke="#006838" stroke-width="0.25" stroke-miterlimit="10" d="M34.145,26.693
			c0.123,0.114,0.217,0.251,0.281,0.41c0.064,0.159,0.097,0.332,0.097,0.517c0,0.184-0.032,0.357-0.096,0.521
			s-0.157,0.303-0.279,0.418c-0.131,0.125-0.287,0.22-0.469,0.286c-0.182,0.066-0.389,0.1-0.622,0.1
			c-0.202,0-0.388-0.029-0.558-0.087c-0.17-0.058-0.32-0.145-0.451-0.261c-0.126-0.111-0.226-0.248-0.298-0.411
			c-0.073-0.163-0.109-0.346-0.109-0.548c0-0.199,0.031-0.375,0.096-0.53c0.063-0.155,0.159-0.293,0.286-0.414
			c0.123-0.116,0.274-0.206,0.454-0.27c0.18-0.063,0.38-0.095,0.603-0.095c0.231,0,0.436,0.032,0.612,0.095
			C33.868,26.487,34.019,26.577,34.145,26.693z M33.509,28.415c0.036-0.093,0.063-0.206,0.081-0.338
			c0.017-0.132,0.025-0.287,0.025-0.462c0-0.116-0.008-0.248-0.024-0.397c-0.017-0.149-0.042-0.267-0.074-0.353
			c-0.04-0.104-0.096-0.187-0.166-0.246s-0.159-0.089-0.267-0.089c-0.118,0-0.212,0.032-0.282,0.097
			c-0.07,0.065-0.125,0.148-0.163,0.251c-0.034,0.095-0.059,0.205-0.071,0.332c-0.014,0.127-0.021,0.259-0.021,0.396
			c0,0.181,0.006,0.33,0.018,0.449c0.012,0.118,0.04,0.237,0.085,0.356c0.038,0.103,0.093,0.184,0.164,0.243
			c0.07,0.06,0.161,0.09,0.271,0.09c0.1,0,0.185-0.028,0.256-0.083C33.411,28.604,33.468,28.522,33.509,28.415z"/>
		<path fill="#006838" stroke="#006838" stroke-width="0.25" stroke-miterlimit="10" d="M38.219,26.854
			c0,0.126-0.039,0.237-0.117,0.332s-0.181,0.143-0.308,0.143c-0.121,0-0.224-0.03-0.308-0.091c-0.083-0.061-0.125-0.151-0.125-0.27
			c0-0.058,0.004-0.103,0.013-0.135c0.008-0.032,0.016-0.062,0.022-0.09c-0.077,0.003-0.157,0.03-0.241,0.079
			c-0.085,0.049-0.159,0.115-0.224,0.197v1.364c0,0.058,0.009,0.106,0.027,0.144c0.018,0.038,0.049,0.068,0.092,0.089
			c0.036,0.019,0.096,0.034,0.178,0.046c0.082,0.013,0.141,0.02,0.178,0.021v0.181h-1.662v-0.181
			c0.041-0.003,0.083-0.008,0.125-0.014c0.042-0.006,0.078-0.014,0.108-0.024c0.053-0.018,0.089-0.046,0.109-0.084
			c0.02-0.038,0.029-0.088,0.029-0.149v-1.446c0-0.06-0.014-0.113-0.042-0.16s-0.062-0.085-0.102-0.113
			c-0.03-0.02-0.067-0.037-0.113-0.05s-0.096-0.022-0.15-0.027v-0.182l1.186-0.064l0.037,0.037v0.36h0.01
			c0.114-0.132,0.235-0.236,0.364-0.312c0.128-0.076,0.262-0.113,0.401-0.113c0.153,0,0.277,0.048,0.371,0.143
			S38.219,26.704,38.219,26.854z"/>
		<path fill="#006838" stroke="#006838" stroke-width="0.25" stroke-miterlimit="10" d="M42.073,26.678h-0.547
			c0.065,0.073,0.113,0.149,0.146,0.23s0.049,0.165,0.049,0.252c0,0.114-0.031,0.222-0.092,0.322
			c-0.062,0.101-0.142,0.182-0.241,0.245c-0.102,0.065-0.22,0.115-0.355,0.152s-0.283,0.055-0.442,0.055h-0.404
			c-0.021,0.015-0.042,0.039-0.066,0.071c-0.024,0.032-0.036,0.063-0.036,0.094c0,0.073,0.029,0.124,0.087,0.152
			c0.059,0.029,0.163,0.044,0.315,0.048c0.151,0.003,0.304,0.009,0.458,0.019c0.153,0.009,0.264,0.015,0.33,0.016
			c0.096,0.005,0.191,0.024,0.285,0.059c0.095,0.034,0.177,0.078,0.246,0.133c0.076,0.058,0.14,0.132,0.189,0.222
			s0.074,0.194,0.074,0.312c0,0.126-0.03,0.244-0.091,0.355c-0.061,0.111-0.152,0.207-0.276,0.288
			c-0.131,0.084-0.288,0.15-0.472,0.196c-0.183,0.046-0.409,0.069-0.679,0.069c-0.437,0-0.768-0.053-0.994-0.159
			c-0.228-0.106-0.341-0.265-0.341-0.477c0-0.131,0.062-0.239,0.184-0.323c0.123-0.084,0.313-0.131,0.571-0.139v-0.03
			c-0.152-0.051-0.271-0.12-0.356-0.206c-0.085-0.085-0.127-0.185-0.127-0.297c0-0.07,0.017-0.129,0.051-0.177
			c0.033-0.048,0.077-0.09,0.13-0.127c0.047-0.031,0.103-0.059,0.169-0.081s0.122-0.04,0.167-0.053v-0.027
			c-0.224-0.083-0.389-0.184-0.493-0.303c-0.105-0.119-0.158-0.265-0.158-0.438c0-0.243,0.112-0.438,0.337-0.584
			c0.225-0.146,0.509-0.218,0.854-0.218c0.112,0,0.222,0.009,0.326,0.028c0.105,0.019,0.186,0.036,0.24,0.051h0.964V26.678z
			 M41.323,29.239c0-0.056-0.016-0.112-0.047-0.167c-0.032-0.056-0.103-0.101-0.211-0.135c-0.06-0.01-0.158-0.017-0.294-0.02
			c-0.137-0.003-0.324-0.005-0.562-0.005c-0.059,0.049-0.106,0.108-0.146,0.176s-0.059,0.15-0.059,0.246
			c0,0.041,0.012,0.087,0.035,0.137c0.023,0.049,0.06,0.096,0.109,0.139c0.058,0.048,0.122,0.085,0.193,0.113
			c0.07,0.027,0.178,0.041,0.322,0.041c0.213,0,0.376-0.042,0.488-0.124C41.267,29.557,41.323,29.423,41.323,29.239z M40.908,27.15
			c0-0.194-0.031-0.347-0.093-0.459c-0.062-0.113-0.156-0.169-0.284-0.169c-0.064,0-0.121,0.016-0.169,0.046
			c-0.049,0.03-0.088,0.075-0.117,0.133c-0.028,0.056-0.048,0.122-0.058,0.197c-0.01,0.076-0.015,0.153-0.015,0.232
			c0,0.181,0.031,0.329,0.095,0.445c0.062,0.116,0.152,0.174,0.27,0.174c0.119,0,0.211-0.052,0.275-0.156
			C40.876,27.488,40.908,27.34,40.908,27.15z"/>
		<path fill="#006838" stroke="#006838" stroke-width="0.25" stroke-miterlimit="10" d="M45.966,28.812
			c-0.073,0.032-0.159,0.061-0.258,0.087c-0.1,0.026-0.204,0.04-0.315,0.04c-0.203,0-0.353-0.03-0.448-0.091
			c-0.097-0.061-0.162-0.147-0.196-0.26h-0.015c-0.057,0.057-0.111,0.104-0.163,0.144c-0.053,0.04-0.108,0.074-0.168,0.102
			c-0.078,0.037-0.153,0.063-0.226,0.082c-0.072,0.018-0.173,0.027-0.302,0.027c-0.193,0-0.357-0.057-0.493-0.17
			c-0.136-0.114-0.204-0.264-0.204-0.452c0-0.108,0.015-0.2,0.045-0.275c0.029-0.076,0.072-0.143,0.127-0.201
			c0.05-0.053,0.107-0.097,0.173-0.132c0.065-0.035,0.138-0.067,0.215-0.097c0.149-0.055,0.329-0.112,0.538-0.17
			c0.209-0.059,0.361-0.112,0.458-0.158V27.05c0-0.041-0.004-0.096-0.01-0.164c-0.007-0.068-0.021-0.125-0.043-0.172
			c-0.022-0.053-0.06-0.098-0.109-0.134c-0.05-0.037-0.115-0.055-0.196-0.055c-0.072,0-0.134,0.01-0.183,0.031
			c-0.049,0.021-0.088,0.042-0.118,0.063c0.005,0.033,0.02,0.083,0.043,0.151c0.022,0.068,0.034,0.134,0.034,0.196
			c0,0.028-0.007,0.063-0.022,0.106c-0.015,0.042-0.036,0.076-0.064,0.101c-0.038,0.033-0.081,0.059-0.128,0.077
			c-0.048,0.018-0.12,0.027-0.219,0.027c-0.14,0-0.245-0.034-0.316-0.101c-0.071-0.067-0.106-0.154-0.106-0.262
			c0-0.093,0.036-0.176,0.11-0.25c0.073-0.074,0.163-0.134,0.27-0.183c0.104-0.05,0.225-0.088,0.36-0.115s0.262-0.041,0.378-0.041
			c0.16,0,0.308,0.009,0.441,0.028c0.135,0.019,0.256,0.059,0.363,0.118c0.103,0.058,0.185,0.142,0.244,0.252
			c0.061,0.11,0.091,0.254,0.091,0.431c0,0.188-0.003,0.409-0.011,0.666s-0.012,0.426-0.012,0.507c0,0.075,0.012,0.133,0.034,0.176
			c0.022,0.043,0.057,0.076,0.103,0.097c0.028,0.013,0.073,0.021,0.133,0.023c0.061,0.002,0.116,0.004,0.166,0.004V28.812z
			 M44.733,27.518c-0.094,0.032-0.186,0.068-0.277,0.108c-0.091,0.041-0.166,0.083-0.225,0.128
			c-0.061,0.046-0.109,0.105-0.145,0.178c-0.034,0.072-0.052,0.157-0.052,0.255c0,0.129,0.029,0.223,0.088,0.282
			c0.06,0.058,0.132,0.087,0.219,0.087c0.091,0,0.166-0.019,0.226-0.056c0.059-0.037,0.111-0.083,0.155-0.138L44.733,27.518z"/>
		<path fill="#006838" stroke="#006838" stroke-width="0.25" stroke-miterlimit="10" d="M50.337,28.864h-1.493v-0.181
			c0.031-0.003,0.069-0.008,0.114-0.013s0.078-0.013,0.102-0.025c0.035-0.018,0.06-0.044,0.075-0.08
			c0.015-0.035,0.021-0.086,0.021-0.154v-1.163c0-0.169-0.03-0.296-0.093-0.381c-0.062-0.085-0.154-0.128-0.275-0.128
			c-0.066,0-0.128,0.01-0.186,0.03c-0.058,0.02-0.113,0.049-0.168,0.087c-0.049,0.033-0.087,0.067-0.116,0.102
			s-0.054,0.065-0.073,0.092v1.334c0,0.058,0.008,0.106,0.024,0.146c0.017,0.039,0.044,0.068,0.082,0.088
			c0.026,0.015,0.06,0.028,0.1,0.04c0.04,0.011,0.078,0.02,0.116,0.025v0.181h-1.51v-0.181c0.041-0.003,0.083-0.008,0.125-0.014
			c0.042-0.006,0.078-0.014,0.108-0.024c0.053-0.018,0.089-0.046,0.109-0.084c0.02-0.038,0.029-0.088,0.029-0.149v-1.446
			c0-0.051-0.013-0.102-0.039-0.151c-0.027-0.05-0.062-0.09-0.104-0.122c-0.03-0.02-0.067-0.037-0.113-0.05s-0.096-0.022-0.15-0.027
			v-0.182l1.186-0.064l0.037,0.037v0.36h0.01c0.046-0.041,0.103-0.091,0.169-0.149s0.128-0.105,0.184-0.142
			c0.062-0.04,0.142-0.074,0.241-0.102c0.1-0.028,0.205-0.042,0.318-0.042c0.27,0,0.472,0.077,0.607,0.229
			c0.135,0.153,0.202,0.357,0.202,0.61v1.217c0,0.062,0.009,0.11,0.027,0.146c0.019,0.037,0.053,0.065,0.102,0.087
			c0.027,0.012,0.06,0.023,0.099,0.035c0.039,0.011,0.083,0.02,0.133,0.025V28.864z"/>
		<path fill="#006838" stroke="#006838" stroke-width="0.25" stroke-miterlimit="10" d="M53.04,28.864h-1.57v-0.181
			c0.043-0.003,0.085-0.008,0.126-0.013c0.042-0.005,0.077-0.013,0.107-0.025c0.053-0.02,0.09-0.048,0.111-0.085
			c0.021-0.038,0.032-0.087,0.032-0.148v-1.446c0-0.058-0.013-0.109-0.039-0.153c-0.027-0.043-0.06-0.079-0.1-0.105
			c-0.03-0.02-0.075-0.039-0.136-0.057s-0.115-0.03-0.165-0.035v-0.182l1.218-0.064l0.037,0.037v1.973
			c0,0.058,0.013,0.107,0.037,0.148c0.024,0.041,0.061,0.071,0.106,0.09c0.033,0.015,0.07,0.028,0.109,0.04
			c0.04,0.011,0.081,0.02,0.125,0.025V28.864z M52.677,25.475c0,0.126-0.049,0.233-0.146,0.322
			c-0.097,0.089-0.211,0.133-0.344,0.133c-0.135,0-0.25-0.044-0.347-0.133c-0.097-0.088-0.146-0.196-0.146-0.322
			s0.049-0.233,0.146-0.323s0.212-0.134,0.347-0.134c0.134,0,0.249,0.045,0.346,0.134C52.629,25.242,52.677,25.349,52.677,25.475z"
			/>
		<path fill="#006838" stroke="#006838" stroke-width="0.25" stroke-miterlimit="10" d="M55.587,28.944
			c-0.229,0-0.434-0.034-0.609-0.101c-0.177-0.067-0.322-0.159-0.437-0.275c-0.114-0.117-0.199-0.256-0.256-0.417
			s-0.084-0.335-0.084-0.524c0-0.172,0.034-0.336,0.103-0.492c0.069-0.155,0.162-0.292,0.279-0.41
			c0.121-0.121,0.271-0.217,0.451-0.29s0.378-0.108,0.596-0.108c0.305,0,0.545,0.057,0.723,0.172
			c0.177,0.115,0.266,0.271,0.266,0.466c0,0.12-0.031,0.215-0.094,0.289c-0.063,0.073-0.172,0.109-0.326,0.109
			c-0.124,0-0.228-0.03-0.312-0.09s-0.126-0.137-0.126-0.233c0-0.081,0.014-0.162,0.04-0.241c0.026-0.079,0.042-0.14,0.047-0.181
			c-0.018-0.03-0.041-0.053-0.069-0.068s-0.072-0.023-0.132-0.023c-0.074,0-0.142,0.017-0.203,0.052
			c-0.062,0.035-0.119,0.096-0.172,0.184c-0.051,0.083-0.092,0.194-0.123,0.333c-0.03,0.139-0.046,0.307-0.046,0.502
			c0,0.295,0.069,0.533,0.208,0.713c0.138,0.181,0.303,0.271,0.495,0.271c0.185,0,0.33-0.041,0.438-0.123s0.205-0.198,0.29-0.349
			l0.187,0.129c-0.052,0.101-0.113,0.193-0.185,0.277s-0.156,0.158-0.256,0.222c-0.104,0.068-0.21,0.12-0.317,0.154
			C55.854,28.926,55.729,28.944,55.587,28.944z"/>
	</g>
	<g>
		<g>
			<path fill="#006838" d="M20.977,24.692l0.812-0.638l0.719,1.436l0.982-0.773l-0.728-1.428l0.809-0.637l1.933,3.812l-0.812,0.638
				l-0.785-1.564l-0.982,0.773l0.796,1.556l-0.811,0.638L20.977,24.692z"/>
			<path fill="#006838" d="M26.292,22.288c0.703-0.355,1.208,0.012,1.511,0.611c0.144,0.288,0.192,0.669,0.188,0.774l-1.555,0.787
				c0.203,0.374,0.537,0.407,0.872,0.239c0.162-0.083,0.312-0.274,0.391-0.43l0.615,0.413c-0.15,0.278-0.448,0.604-0.92,0.841
				c-0.705,0.356-1.438,0.135-1.83-0.638C25.028,23.825,25.52,22.679,26.292,22.288z M27.101,23.428
				c-0.012-0.052-0.035-0.127-0.07-0.196c-0.101-0.197-0.257-0.306-0.498-0.183c-0.219,0.11-0.368,0.389-0.309,0.821L27.101,23.428z
				"/>
			<path fill="#006838" d="M29.472,20.964c0.254-0.091,0.575-0.042,0.765,0.151l0.015-0.004l0.024-0.351l0.777-0.277l0.475,3.253
				l-0.788,0.281l-0.135-0.376l-0.013,0.004c-0.167,0.375-0.459,0.67-0.75,0.773c-0.534,0.191-0.994-0.097-1.248-0.813
				C28.181,22.451,28.632,21.264,29.472,20.964z M30.39,22.882l-0.153-1.04c-0.131-0.132-0.3-0.153-0.41-0.115
				c-0.353,0.126-0.511,0.716-0.269,1.397c0.112,0.316,0.27,0.411,0.44,0.35C30.154,23.417,30.348,23.267,30.39,22.882z"/>
			<path fill="#006838" d="M31.89,18.977l0.997-0.266l0.216,3.523c0.004,0.065,0.012,0.091,0.02,0.122
				c0.03,0.119,0.104,0.14,0.166,0.122c0.038-0.009,0.063-0.016,0.11-0.042l0.157,0.747c-0.102,0.068-0.268,0.151-0.491,0.211
				c-0.511,0.136-0.781-0.073-0.894-0.497c-0.034-0.125-0.054-0.253-0.062-0.438L31.89,18.977z"/>
			<path fill="#006838" d="M34.029,20.579l-0.403,0.083l-0.002-0.777l0.446-0.131l0.113-0.867l0.848-0.173l0.013,0.84l0.685-0.14
				l0.009,0.814l-0.71,0.146l0.005,1.238c0.001,0.079,0.016,0.142,0.029,0.206c0.038,0.189,0.156,0.257,0.359,0.215
				c0.075-0.014,0.147-0.056,0.216-0.109l0.321,0.672c-0.164,0.1-0.414,0.229-0.769,0.302c-0.668,0.138-1.023-0.172-1.129-0.691
				c-0.028-0.139-0.033-0.283-0.035-0.427L34.029,20.579z"/>
			<path fill="#006838" d="M36.578,18.006l1.026-0.132l-0.084,1.065l-0.081,0.583l0.024-0.003c0.229-0.264,0.535-0.5,0.92-0.549
				c0.527-0.067,0.794,0.185,0.863,0.736c0.019,0.141,0.028,0.309,0.009,0.468l-0.139,2.037l-1.023,0.133l0.129-1.907
				c0.01-0.118,0.023-0.211,0.014-0.288c-0.021-0.179-0.138-0.256-0.304-0.234c-0.179,0.024-0.317,0.159-0.516,0.432l-0.131,2.101
				l-1.024,0.133L36.578,18.006z"/>
			<path fill="#006838" d="M41.499,18.817l1.032-0.042l-0.515,3.251l-1.031,0.042L41.499,18.817z M41.604,17.922
				c-0.012-0.31,0.248-0.592,0.596-0.606c0.27-0.011,0.55,0.146,0.562,0.456c0.014,0.335-0.247,0.591-0.597,0.605
				C41.896,18.387,41.618,18.244,41.604,17.922z"/>
			<path fill="#006838" d="M43.214,20.947c0.229,0.273,0.446,0.378,0.642,0.379c0.192,0.002,0.363-0.085,0.363-0.215
				c0.001-0.169-0.205-0.235-0.538-0.432c-0.314-0.184-0.613-0.483-0.611-0.908c0.007-0.62,0.591-1.079,1.315-1.071
				c0.464,0.004,0.823,0.239,1.09,0.526l-0.559,0.523c-0.155-0.157-0.333-0.287-0.54-0.289c-0.206-0.002-0.337,0.1-0.338,0.229
				c-0.001,0.18,0.271,0.26,0.513,0.404c0.31,0.171,0.642,0.433,0.637,0.91c-0.006,0.646-0.591,1.079-1.403,1.071
				c-0.377-0.004-0.89-0.215-1.169-0.644L43.214,20.947z"/>
			<path fill="#006838" d="M47.782,17.933l1.05,0.133l-0.404,1.859c-0.099,0.43-0.203,0.878-0.32,1.312l0.021,0.003
				c0.226-0.419,0.481-0.855,0.695-1.263l1.027-1.78l0.849,0.108l-0.24,1.88c-0.064,0.42-0.149,0.877-0.231,1.322l0.025,0.002
				c0.197-0.428,0.42-0.862,0.604-1.274l0.867-1.8l0.971,0.123l-2.1,3.957L49.3,22.35l0.278-1.771
				c0.034-0.25,0.125-0.648,0.191-0.956l-0.021-0.004c-0.146,0.293-0.327,0.616-0.49,0.919l-0.915,1.69l-1.267-0.161L47.782,17.933z
				"/>
			<path fill="#006838" d="M54.271,19.896c0.766,0.178,0.918,0.783,0.766,1.439c-0.072,0.314-0.281,0.638-0.352,0.715l-1.7-0.396
				c-0.084,0.419,0.151,0.659,0.519,0.744c0.175,0.041,0.413-0.01,0.574-0.08l0.208,0.713c-0.293,0.118-0.732,0.176-1.249,0.055
				c-0.766-0.179-1.188-0.82-0.991-1.664C52.312,20.264,53.427,19.699,54.271,19.896z M54.158,21.29
				c0.023-0.046,0.054-0.119,0.07-0.195c0.051-0.214,0-0.399-0.264-0.459c-0.24-0.057-0.532,0.062-0.764,0.433L54.158,21.29z"/>
			<path fill="#006838" d="M57.499,20.839c0.257,0.089,0.477,0.328,0.508,0.597l0.011,0.004l0.24-0.259l0.782,0.268l-1.658,2.85
				l-0.794-0.272l0.129-0.38l-0.015-0.004c-0.365,0.19-0.778,0.24-1.071,0.139c-0.538-0.184-0.718-0.696-0.47-1.419
				C55.557,21.201,56.655,20.551,57.499,20.839z M57.021,22.917l0.528-0.911c-0.017-0.184-0.14-0.308-0.25-0.346
				c-0.355-0.121-0.847,0.243-1.084,0.929c-0.106,0.318-0.045,0.49,0.127,0.549C56.503,23.191,56.749,23.194,57.021,22.917z"/>
			<path fill="#006838" d="M60.681,20.831l0.939,0.43l-2.074,2.862c-0.036,0.053-0.047,0.077-0.062,0.106
				c-0.051,0.111-0.009,0.173,0.051,0.2c0.034,0.017,0.06,0.028,0.112,0.037l-0.353,0.677c-0.123-0.013-0.304-0.052-0.515-0.149
				c-0.484-0.219-0.557-0.553-0.374-0.952c0.054-0.118,0.117-0.23,0.228-0.378L60.681,20.831z"/>
			<path fill="#006838" d="M61.342,23.463l-0.357-0.207l0.515-0.583l0.425,0.199l0.659-0.575l0.752,0.433l-0.55,0.639l0.605,0.349
				l-0.537,0.616l-0.625-0.361l-0.821,0.93c-0.051,0.061-0.082,0.117-0.112,0.172c-0.1,0.168-0.055,0.298,0.126,0.402
				c0.065,0.039,0.146,0.055,0.23,0.06l-0.205,0.718c-0.189-0.035-0.462-0.104-0.774-0.284c-0.595-0.343-0.652-0.81-0.389-1.269
				c0.074-0.123,0.166-0.233,0.26-0.343L61.342,23.463z"/>
			<path fill="#006838" d="M65.19,23.479l0.787,0.666l-0.844,0.658l-0.484,0.334l0.021,0.016c0.345-0.011,0.729,0.058,1.024,0.308
				c0.404,0.343,0.399,0.709,0.038,1.134c-0.089,0.108-0.208,0.229-0.338,0.321l-1.598,1.271l-0.791-0.667l1.496-1.189
				c0.094-0.071,0.173-0.124,0.224-0.184c0.114-0.138,0.096-0.273-0.032-0.382c-0.137-0.117-0.331-0.129-0.669-0.091l-1.642,1.32
				l-0.788-0.667L65.19,23.479z"/>
		</g>
	</g>
	<g>
		<path fill="#006838" d="M37.557,51.829h-2.322v-0.214c0.056-0.004,0.146-0.013,0.269-0.028c0.123-0.015,0.207-0.03,0.252-0.045
			c0.057-0.019,0.101-0.051,0.132-0.096c0.032-0.045,0.048-0.107,0.048-0.186v-1.785h-0.712v-0.268h0.155
			c0.163,0,0.305-0.018,0.424-0.053s0.218-0.079,0.297-0.13c0.08-0.052,0.146-0.107,0.198-0.163s0.092-0.106,0.122-0.149h0.496
			c-0.006,0.122-0.012,0.265-0.018,0.428c-0.006,0.163-0.008,0.31-0.008,0.439v1.649c0,0.067,0.014,0.126,0.043,0.176
			c0.029,0.05,0.071,0.088,0.126,0.114c0.048,0.022,0.13,0.043,0.244,0.062c0.114,0.019,0.199,0.03,0.254,0.034V51.829z"/>
		<path fill="#006838" d="M41.35,49.206c0.143,0.15,0.248,0.321,0.316,0.514s0.103,0.392,0.103,0.598
			c0,0.246-0.043,0.468-0.128,0.666c-0.085,0.198-0.202,0.365-0.351,0.502c-0.155,0.143-0.337,0.251-0.543,0.326
			c-0.207,0.075-0.444,0.113-0.712,0.113c-0.284,0-0.534-0.044-0.751-0.132c-0.216-0.088-0.396-0.205-0.541-0.349
			c-0.143-0.143-0.251-0.311-0.325-0.504c-0.074-0.193-0.111-0.4-0.111-0.622c0-0.219,0.035-0.423,0.105-0.611
			c0.07-0.188,0.179-0.357,0.325-0.509c0.143-0.148,0.323-0.267,0.543-0.356c0.22-0.089,0.472-0.134,0.758-0.134
			c0.294,0,0.551,0.046,0.771,0.138C41.028,48.938,41.209,49.058,41.35,49.206z M40.556,51.303c0.055-0.125,0.093-0.266,0.116-0.421
			s0.036-0.343,0.036-0.564c0-0.199-0.012-0.378-0.033-0.538c-0.021-0.159-0.058-0.301-0.108-0.425
			c-0.052-0.127-0.122-0.226-0.208-0.295c-0.086-0.07-0.192-0.104-0.318-0.104c-0.127,0-0.234,0.034-0.32,0.103
			c-0.087,0.068-0.157,0.166-0.211,0.291c-0.049,0.115-0.085,0.255-0.107,0.421s-0.033,0.349-0.033,0.547
			c0,0.208,0.01,0.386,0.029,0.532s0.056,0.287,0.108,0.422c0.047,0.122,0.114,0.22,0.202,0.295
			c0.089,0.075,0.197,0.112,0.327,0.112c0.12,0,0.224-0.034,0.312-0.101C40.436,51.511,40.505,51.419,40.556,51.303z"/>
		<path fill="#006838" d="M45.691,49.206c0.143,0.15,0.248,0.321,0.316,0.514s0.103,0.392,0.103,0.598
			c0,0.246-0.043,0.468-0.128,0.666c-0.085,0.198-0.202,0.365-0.351,0.502c-0.155,0.143-0.337,0.251-0.543,0.326
			c-0.207,0.075-0.444,0.113-0.712,0.113c-0.284,0-0.534-0.044-0.751-0.132c-0.216-0.088-0.396-0.205-0.541-0.349
			c-0.143-0.143-0.251-0.311-0.325-0.504c-0.074-0.193-0.111-0.4-0.111-0.622c0-0.219,0.035-0.423,0.105-0.611
			c0.07-0.188,0.179-0.357,0.325-0.509c0.143-0.148,0.323-0.267,0.543-0.356c0.22-0.089,0.472-0.134,0.758-0.134
			c0.294,0,0.551,0.046,0.771,0.138C45.37,48.938,45.551,49.058,45.691,49.206z M44.897,51.303c0.055-0.125,0.093-0.266,0.116-0.421
			s0.036-0.343,0.036-0.564c0-0.199-0.012-0.378-0.033-0.538c-0.021-0.159-0.058-0.301-0.108-0.425
			c-0.052-0.127-0.122-0.226-0.208-0.295c-0.086-0.07-0.192-0.104-0.318-0.104c-0.127,0-0.234,0.034-0.32,0.103
			c-0.087,0.068-0.157,0.166-0.211,0.291c-0.049,0.115-0.085,0.255-0.107,0.421s-0.033,0.349-0.033,0.547
			c0,0.208,0.01,0.386,0.029,0.532s0.056,0.287,0.108,0.422c0.047,0.122,0.114,0.22,0.202,0.295
			c0.089,0.075,0.197,0.112,0.327,0.112c0.12,0,0.224-0.034,0.312-0.101C44.777,51.511,44.847,51.419,44.897,51.303z"/>
		<path fill="#006838" d="M49.149,48.772c0,0.313-0.105,0.567-0.317,0.761c-0.211,0.194-0.47,0.292-0.778,0.292
			c-0.312,0-0.572-0.097-0.782-0.292s-0.315-0.448-0.315-0.761c0-0.313,0.105-0.567,0.315-0.762s0.47-0.291,0.78-0.291
			c0.31,0,0.569,0.097,0.78,0.291C49.044,48.205,49.149,48.459,49.149,48.772z M51.131,47.81l-3.329,4.02h-0.46l3.321-4.02H51.131z
			 M48.403,48.778c0-0.259-0.025-0.466-0.076-0.621s-0.144-0.232-0.278-0.232c-0.122,0-0.211,0.073-0.265,0.218
			c-0.055,0.146-0.082,0.348-0.082,0.606c0,0.271,0.025,0.483,0.074,0.638c0.05,0.155,0.145,0.232,0.283,0.232
			c0.12,0,0.207-0.073,0.262-0.218S48.403,49.048,48.403,48.778z M51.514,50.875c0,0.313-0.105,0.567-0.316,0.761
			c-0.212,0.194-0.471,0.292-0.778,0.292c-0.312,0-0.573-0.097-0.783-0.292s-0.315-0.448-0.315-0.761s0.105-0.567,0.315-0.762
			c0.21-0.194,0.471-0.291,0.78-0.291s0.569,0.097,0.781,0.291C51.408,50.308,51.514,50.562,51.514,50.875z M50.768,50.88
			c0-0.259-0.025-0.466-0.076-0.621s-0.144-0.232-0.278-0.232c-0.122,0-0.21,0.073-0.265,0.218
			c-0.055,0.146-0.082,0.348-0.082,0.607c0,0.27,0.025,0.482,0.075,0.637s0.144,0.232,0.282,0.232c0.12,0,0.208-0.073,0.262-0.218
			C50.74,51.358,50.768,51.151,50.768,50.88z"/>
	</g>
</g>
</svg>
